<svg xmlns="http://www.w3.org/2000/svg" viewBox="0 0 100 40" fill="#1F70C1">
  <!-- I -->
  <rect x="0" y="0" width="14" height="4"/>
  <rect x="4" y="6" width="6" height="4"/>
  <rect x="4" y="12" width="6" height="4"/>
  <rect x="0" y="18" width="14" height="4"/>
  <rect x="4" y="24" width="6" height="4"/>
  <rect x="4" y="30" width="6" height="4"/>
  <rect x="0" y="36" width="14" height="4"/>
  <!-- B -->
  <rect x="18" y="0" width="14" height="4"/>
  <rect x="18" y="6" width="10" height="4"/>
  <rect x="30" y="6" width="4" height="4"/>
  <rect x="18" y="12" width="8" height="4"/>
  <rect x="28" y="12" width="4" height="4"/>
  <rect x="18" y="18" width="14" height="4"/>
  <rect x="18" y="24" width="8" height="4"/>
  <rect x="28" y="24" width="4" height="4"/>
  <rect x="18" y="30" width="10" height="4"/>
  <rect x="30" y="30" width="4" height="4"/>
  <rect x="18" y="36" width="14" height="4"/>
  <!-- M -->
  <rect x="38" y="0" width="24" height="4"/>
  <rect x="38" y="6" width="6" height="4"/>
  <rect x="52" y="6" width="10" height="4"/>
  <rect x="38" y="12" width="6" height="4"/>
  <rect x="44" y="12" width="4" height="4"/>
  <rect x="50" y="12" width="12" height="4"/>
  <rect x="38" y="18" width="6" height="4"/>
  <rect x="56" y="18" width="6" height="4"/>
  <rect x="38" y="24" width="6" height="4"/>
  <rect x="56" y="24" width="6" height="4"/>
  <rect x="38" y="30" width="6" height="4"/>
  <rect x="56" y="30" width="6" height="4"/>
  <rect x="38" y="36" width="6" height="4"/>
  <rect x="56" y="36" width="6" height="4"/>
</svg>
